<?xml version="1.0" standalone="no"?>
<!DOCTYPE svg PUBLIC "-//W3C//DTD SVG 20010904//EN"
 "http://www.w3.org/TR/2001/REC-SVG-20010904/DTD/svg10.dtd">
<svg version="1.0" xmlns="http://www.w3.org/2000/svg"
 width="512.000000pt" height="512.000000pt" viewBox="0 0 512.000000 512.000000"
 preserveAspectRatio="xMidYMid meet">
<metadata>
Created by potrace 1.11, written by Peter Selinger 2001-2013
</metadata>
<g transform="translate(0.000000,512.000000) scale(0.100000,-0.100000)"
fill="#000000" stroke="none">
<path d="M2370 5114 c-19 -2 -78 -9 -130 -15 -284 -33 -617 -136 -870 -270
-244 -130 -530 -350 -697 -537 -358 -403 -569 -845 -650 -1362 -25 -163 -25
-577 0 -740 69 -440 232 -827 499 -1182 49 -64 94 -120 100 -124 6 -4 8 -3 5
3 -3 5 154 169 349 364 l354 354 0 67 0 66 -187 4 c-184 3 -189 4 -235 30 -61
36 -105 91 -123 152 -22 72 -20 76 23 77 32 1 34 2 12 8 -110 34 -185 116
-206 226 l-6 35 43 0 44 0 -50 24 c-70 32 -131 103 -153 180 l-18 61 440 3
c484 2 492 2 575 -58 98 -71 121 -149 121 -407 0 -101 3 -183 7 -183 5 0 171
163 370 362 l363 363 247 -247 248 -248 -83 -83 -82 -83 36 -34 c20 -19 95
-97 167 -173 l131 -138 -709 -709 c-390 -390 -707 -711 -705 -714 3 -2 79 -29
170 -59 185 -62 310 -90 497 -112 139 -16 488 -21 497 -6 3 5 -1 24 -9 42
l-14 34 -1 -28 c0 -22 -4 -27 -17 -23 -10 3 -36 10 -59 15 -48 13 -113 57
-142 98 -42 60 -52 114 -52 288 l0 165 -62 0 -63 0 135 135 135 136 225 -3
225 -3 54 -30 c29 -16 68 -47 87 -68 59 -70 64 -100 64 -399 0 -159 4 -268 9
-268 5 0 63 18 128 41 249 86 558 258 769 429 101 82 292 273 374 374 232 287
412 650 499 1009 55 223 66 326 66 607 0 281 -11 384 -66 609 -150 612 -531
1158 -1054 1510 -159 107 -273 170 -422 233 -215 91 -424 149 -655 184 -98 14
-474 27 -548 18z m102 -977 l-52 -52 110 -110 110 -110 -467 -467 -468 -468
-105 105 c-58 58 -110 105 -115 105 -5 0 -32 -22 -60 -50 l-50 -50 -160 160
-160 160 248 248 c243 243 247 248 247 289 l0 41 -122 3 c-107 4 -128 7 -160
27 -45 28 -76 76 -80 123 -2 26 -12 40 -39 60 -33 25 -69 89 -69 124 0 9 9 15
23 15 20 0 19 2 -8 16 -53 27 -78 61 -100 132 l-6 22 296 0 c328 0 338 -2 392
-63 44 -50 53 -91 53 -237 l0 -125 237 238 238 237 160 -160 160 -160 -53 -53z
m2043 -507 l170 -170 -53 -53 c-28 -29 -52 -57 -52 -62 0 -5 52 -62 115 -125
l115 -115 -505 -505 -505 -505 -120 120 -120 120 -58 -58 -57 -57 -173 173
-172 172 265 265 265 265 0 47 0 48 -122 0 c-98 0 -131 4 -164 19 -41 19 -87
69 -97 106 -3 11 -8 30 -12 43 -5 17 -2 22 12 22 12 1 8 5 -12 14 -41 18 -92
77 -104 123 -14 50 -14 53 6 53 9 0 0 11 -24 29 -39 28 -65 69 -78 124 l-7 27
321 0 c297 0 325 -1 359 -19 94 -48 112 -96 112 -293 l0 -153 257 258 c142
141 260 257 263 257 3 0 82 -76 175 -170z m-1822 -264 c43 -17 93 -76 106
-123 7 -22 11 -153 11 -315 0 -260 -1 -278 -18 -278 -33 0 -107 45 -128 77
-16 24 -23 29 -27 19 -5 -12 -13 -13 -44 -4 -51 13 -97 50 -113 88 -9 21 -15
27 -21 19 -10 -16 -75 2 -111 31 -46 36 -58 77 -58 204 l0 116 -40 0 c-22 0
-40 3 -40 7 0 4 37 45 82 90 l83 83 143 0 c97 0 153 -4 175 -14z m2185 -805
c47 -24 77 -56 97 -103 12 -31 15 -91 15 -353 0 -312 0 -316 -20 -311 -11 3
-30 9 -42 12 -37 10 -87 53 -108 92 -18 35 -19 36 -20 11 0 -26 -2 -26 -36
-19 -55 13 -109 54 -133 102 -11 24 -21 35 -21 26 0 -37 -85 -12 -132 38 -41
44 -48 75 -48 210 l0 124 -47 0 -48 0 95 95 95 95 158 0 c135 0 163 -3 195
-19z"/>
<path d="M2066 3731 l-59 -60 35 -14 c42 -18 63 -62 55 -114 -4 -21 -2 -42 5
-50 7 -9 7 -17 -2 -28 -12 -14 -15 -14 -30 0 -11 10 -20 11 -26 5 -14 -14 -74
-30 -74 -20 0 5 -3 15 -6 24 -4 11 0 16 12 16 11 0 26 5 34 10 12 8 8 16 -25
50 -21 22 -44 40 -50 40 -6 0 -44 -33 -84 -74 -84 -84 -84 -88 -3 -127 124
-60 285 1 338 127 32 75 9 211 -43 256 -18 17 -21 15 -77 -41z"/>
<path d="M1990 3613 c0 -15 59 -67 67 -59 13 12 -21 61 -45 64 -12 2 -22 -1
-22 -5z"/>
<path d="M4170 2945 c-55 -56 -61 -65 -41 -65 28 0 78 -48 87 -84 3 -14 2 -39
-4 -55 -8 -23 -7 -32 6 -45 15 -15 15 -17 0 -33 -14 -13 -20 -14 -32 -4 -13
11 -23 10 -57 -3 -44 -18 -59 -14 -59 12 0 11 13 23 32 30 l33 12 -46 46 c-55
55 -54 55 -153 -45 -80 -80 -79 -86 9 -127 69 -33 161 -33 230 0 148 69 197
254 103 392 -13 19 -28 34 -33 34 -6 0 -40 -29 -75 -65z"/>
<path d="M4125 2789 c30 -30 41 -36 43 -24 6 28 -26 65 -55 65 l-27 0 39 -41z"/>
<path d="M2161 1436 l-93 -93 32 -7 c18 -3 49 -23 70 -44 46 -45 59 -101 37
-154 -14 -34 -14 -37 9 -60 l25 -24 -26 -24 -25 -24 -21 20 c-20 20 -21 20
-57 3 -20 -10 -52 -21 -69 -25 -29 -6 -33 -4 -34 15 -1 11 -2 26 -3 33 -1 6
17 16 38 22 22 6 41 16 43 21 2 6 -26 39 -62 75 l-64 64 -121 -119 -120 -119
26 -27 c14 -14 51 -39 82 -55 52 -27 66 -29 162 -29 96 0 110 3 165 29 76 38
143 105 181 181 26 54 29 70 29 160 0 93 -2 105 -32 166 -18 35 -43 75 -55 87
l-24 22 -93 -94z"/>
<path d="M2040 1262 c0 -10 93 -102 103 -102 25 0 -10 93 -38 104 -23 9 -65 8
-65 -2z"/>
<path d="M1186 461 l-38 -39 84 -49 c109 -65 165 -96 235 -128 l58 -26 -140
141 c-77 77 -145 140 -150 140 -6 0 -28 -17 -49 -39z"/>
</g>
</svg>
